<svg width="24" height="24" viewBox="0 0 24 24" fill="none" xmlns="http://www.w3.org/2000/svg">
<g clip-path="url(#clip0_1_20)">
<path d="M8.74783 21.75H7.50002C7.37464 21.75 7.25127 21.7185 7.14119 21.6585C7.03112 21.5984 6.93784 21.5118 6.86991 21.4064C6.80197 21.301 6.76154 21.1803 6.7523 21.0552C6.74307 20.9302 6.76533 20.8048 6.81705 20.6906L9.83861 14.0227L5.30158 13.9219L3.64689 15.9267C3.33142 16.3233 3.0797 16.5 2.43752 16.5H1.59752C1.46452 16.5043 1.33245 16.4764 1.2125 16.4188C1.09255 16.3612 0.988255 16.2755 0.908454 16.1691C0.796891 16.0186 0.687204 15.7636 0.794079 15.3998L1.72314 12.0717C1.73017 12.0469 1.73861 12.022 1.74798 11.9977C1.74845 11.9953 1.74845 11.9929 1.74798 11.9906C1.7383 11.9663 1.73001 11.9414 1.72314 11.9161L0.793141 8.56687C0.69236 8.21016 0.802516 7.96078 0.913141 7.81406C0.987427 7.71549 1.0838 7.63573 1.19452 7.58118C1.30524 7.52664 1.42722 7.49883 1.55064 7.5H2.43752C2.91705 7.5 3.38252 7.71516 3.65627 8.0625L5.27673 10.0336L9.83861 9.96609L6.81798 3.30984C6.76619 3.19568 6.74385 3.07036 6.75299 2.94533C6.76212 2.8203 6.80246 2.69956 6.8703 2.59414C6.93814 2.48872 7.03132 2.40198 7.14133 2.34186C7.25133 2.28175 7.37465 2.25016 7.50002 2.25H8.76142C8.9374 2.25354 9.11033 2.29667 9.26735 2.3762C9.42438 2.45572 9.56147 2.5696 9.66845 2.70937L15.5302 9.83438L18.2381 9.76312C18.4364 9.75234 18.9858 9.74859 19.1128 9.74859C21.7031 9.75 23.25 10.5909 23.25 12C23.25 12.4434 23.0728 13.2656 21.8874 13.7888C21.1875 14.0981 20.2538 14.2547 19.1119 14.2547C18.9863 14.2547 18.4383 14.2509 18.2372 14.2402L15.5297 14.168L9.65345 21.293C9.54638 21.4321 9.40941 21.5454 9.25266 21.6246C9.0959 21.7037 8.92338 21.7465 8.74783 21.75Z" fill="#302E33"/>
</g>
<defs>
<clipPath id="clip0_1_20">
<rect width="24" height="24" fill="white"/>
</clipPath>
</defs>
</svg>
