<svg width="153" height="57" viewBox="0 0 153 57" fill="none" xmlns="http://www.w3.org/2000/svg">
<path d="M3.24 41.2843V16.3363H17.46V18.4603H5.688V27.2443H16.128V29.3683H5.688V41.2843H3.24ZM26.5151 41.6083C25.7231 41.5843 25.0271 41.4763 24.4271 41.2843C23.8511 41.1163 23.3591 40.8523 22.9511 40.4923C22.5671 40.1083 22.2671 39.6283 22.0511 39.0523C21.8591 38.4523 21.7631 37.7083 21.7631 36.8203V13.7803L24.1031 13.3483V36.7483C24.1031 37.3243 24.1511 37.7923 24.2471 38.1523C24.3671 38.4883 24.5351 38.7643 24.7511 38.9803C24.9671 39.1723 25.2431 39.3163 25.5791 39.4123C25.9391 39.5083 26.3591 39.5923 26.8391 39.6643L26.5151 41.6083ZM36.0509 41.6803C35.2589 40.2163 34.4909 38.6923 33.7469 37.1083C33.0269 35.5243 32.3429 33.9283 31.6949 32.3203C31.0709 30.6883 30.4949 29.0683 29.9669 27.4603C29.4389 25.8283 28.9829 24.2323 28.5989 22.6723H31.0829C31.3469 23.8243 31.6829 25.0723 32.0909 26.4163C32.4989 27.7363 32.9549 29.1043 33.4589 30.5203C33.9869 31.9363 34.5629 33.3883 35.1869 34.8763C35.8109 36.3643 36.4829 37.8283 37.2029 39.2683C37.7309 37.7803 38.1989 36.3763 38.6069 35.0563C39.0149 33.7363 39.3869 32.4283 39.7229 31.1323C40.0829 29.8123 40.4189 28.4683 40.7309 27.1003C41.0669 25.7323 41.4149 24.2563 41.7749 22.6723H44.1149C43.3469 26.1523 42.4709 29.5363 41.4869 32.8243C40.5029 36.1123 39.4349 39.1243 38.2829 41.8603C37.8269 42.9403 37.3589 43.8643 36.8789 44.6323C36.3989 45.4243 35.8589 46.0723 35.2589 46.5763C34.6829 47.0803 33.9989 47.4523 33.2069 47.6923C32.4389 47.9323 31.5269 48.0523 30.4709 48.0523C29.8709 48.0523 29.3189 47.9803 28.8149 47.8363C28.3349 47.6923 28.0349 47.5843 27.9149 47.5123L28.3829 45.5683C28.4789 45.6403 28.7429 45.7363 29.1749 45.8563C29.6309 46.0003 30.0989 46.0723 30.5789 46.0723C31.2509 46.0723 31.8509 46.0003 32.3789 45.8563C32.9309 45.7123 33.4229 45.4603 33.8549 45.1003C34.2869 44.7643 34.6709 44.3203 35.0069 43.7683C35.3669 43.2163 35.7149 42.5203 36.0509 41.6803Z" fill="#302E33"/>
<path d="M53.3537 16.3363C53.8817 17.2483 54.4697 18.3643 55.1177 19.6843C55.7657 21.0043 56.4257 22.3963 57.0977 23.8603C57.7697 25.3003 58.4297 26.7763 59.0777 28.2883C59.7497 29.7763 60.3617 31.1563 60.9137 32.4283C61.4657 31.1563 62.0657 29.7763 62.7137 28.2883C63.3617 26.7763 64.0217 25.3003 64.6937 23.8603C65.3657 22.3963 66.0257 21.0043 66.6737 19.6843C67.3217 18.3643 67.9097 17.2483 68.4377 16.3363H72.5417C72.7577 18.1603 72.9617 20.1043 73.1537 22.1683C73.3457 24.2083 73.5137 26.3083 73.6577 28.4683C73.8257 30.6043 73.9697 32.7643 74.0897 34.9483C74.2337 37.1083 74.3537 39.2203 74.4497 41.2843H69.9857C69.8897 38.3803 69.7697 35.3923 69.6257 32.3203C69.5057 29.2483 69.3137 26.2723 69.0497 23.3923C68.7857 23.9443 68.4737 24.6043 68.1137 25.3723C67.7537 26.1403 67.3697 26.9803 66.9617 27.8923C66.5537 28.7803 66.1337 29.7043 65.7017 30.6643C65.2937 31.6243 64.8857 32.5603 64.4777 33.4723C64.0937 34.3603 63.7337 35.2003 63.3977 35.9923C63.0617 36.7603 62.7737 37.4203 62.5337 37.9723H59.1497C58.9097 37.4203 58.6217 36.7483 58.2857 35.9563C57.9497 35.1643 57.5777 34.3243 57.1697 33.4363C56.7857 32.5243 56.3777 31.5883 55.9457 30.6283C55.5377 29.6683 55.1297 28.7443 54.7217 27.8563C54.3137 26.9683 53.9297 26.1403 53.5697 25.3723C53.2097 24.5803 52.8977 23.9203 52.6337 23.3923C52.3697 26.2723 52.1657 29.2483 52.0217 32.3203C51.9017 35.3923 51.7937 38.3803 51.6977 41.2843H47.2337C47.3297 39.2203 47.4377 37.0843 47.5577 34.8763C47.7017 32.6683 47.8457 30.4843 47.9897 28.3243C48.1577 26.1403 48.3377 24.0283 48.5297 21.9883C48.7217 19.9483 48.9257 18.0643 49.1417 16.3363H53.3537ZM78.4741 31.9603C78.4741 30.3043 78.7141 28.8523 79.1941 27.6043C79.6981 26.3563 80.3581 25.3243 81.1741 24.5083C81.9901 23.6683 82.9261 23.0443 83.9821 22.6363C85.0381 22.2043 86.1181 21.9883 87.2221 21.9883C89.8141 21.9883 91.8301 22.7923 93.2701 24.4003C94.7341 26.0083 95.4661 28.4083 95.4661 31.6003C95.4661 31.8403 95.4541 32.1163 95.4301 32.4283C95.4301 32.7163 95.4181 32.9803 95.3941 33.2203H82.9741C83.0941 34.7323 83.6221 35.9083 84.5581 36.7483C85.5181 37.5643 86.8981 37.9723 88.6981 37.9723C89.7541 37.9723 90.7141 37.8763 91.5781 37.6843C92.4661 37.4923 93.1621 37.2883 93.6661 37.0723L94.2421 40.6363C94.0021 40.7563 93.6661 40.8883 93.2341 41.0323C92.8261 41.1523 92.3461 41.2603 91.7941 41.3563C91.2661 41.4763 90.6901 41.5723 90.0661 41.6443C89.4421 41.7163 88.8061 41.7523 88.1581 41.7523C86.5021 41.7523 85.0621 41.5123 83.8381 41.0323C82.6141 40.5283 81.6061 39.8443 80.8141 38.9803C80.0221 38.0923 79.4341 37.0603 79.0501 35.8843C78.6661 34.6843 78.4741 33.3763 78.4741 31.9603ZM91.1101 30.0163C91.1101 29.4163 91.0261 28.8523 90.8581 28.3243C90.6901 27.7723 90.4381 27.3043 90.1021 26.9203C89.7901 26.5123 89.3941 26.2003 88.9141 25.9843C88.4581 25.7443 87.9061 25.6243 87.2581 25.6243C86.5861 25.6243 85.9981 25.7563 85.4941 26.0203C84.9901 26.2603 84.5581 26.5843 84.1981 26.9923C83.8621 27.4003 83.5981 27.8683 83.4061 28.3963C83.2141 28.9243 83.0821 29.4643 83.0101 30.0163H91.1101Z" fill="#DC99C1"/>
<circle cx="124" cy="28.2843" r="20" transform="rotate(45 124 28.2843)" fill="#302E33"/>
<g clip-path="url(#clip0_1_64)">
<path d="M131.071 44.7834L133.428 42.4264L129.303 26.5165L135.785 20.0347C136.763 19.0565 136.763 17.4773 135.785 16.4992C134.807 15.521 133.228 15.521 132.25 16.4992L125.768 22.981L109.858 18.8562L107.501 21.2132L120.464 28.2843L113.983 34.7661L109.269 33.5876L107.501 35.3553L113.393 38.8909L116.929 44.7834L118.697 43.0157L117.518 38.3016L124 31.8198L131.071 44.7834Z" fill="#DC99C1"/>
</g>
<defs>
<clipPath id="clip0_1_64">
<rect width="40" height="40" fill="white" transform="translate(124) rotate(45)"/>
</clipPath>
</defs>
</svg>
